<?xml version="1.0" standalone="no"?>
<!DOCTYPE svg PUBLIC "-//W3C//DTD SVG 20010904//EN"
 "http://www.w3.org/TR/2001/REC-SVG-20010904/DTD/svg10.dtd">
<svg version="1.0" xmlns="http://www.w3.org/2000/svg"
 width="104.000000pt" height="104.000000pt" viewBox="0 0 104.000000 104.000000"
 preserveAspectRatio="xMidYMid meet">
<metadata>
Created by potrace 1.14, written by Peter Selinger 2001-2017
</metadata>
<g transform="translate(0.000000,104.000000) scale(0.100000,-0.100000)"
fill="#000000" stroke="none">
<path d="M369 719 c-35 -38 -41 -41 -113 -48 -42 -4 -82 -13 -88 -19 -14 -14
-24 -250 -13 -308 10 -58 24 -64 146 -64 66 0 109 4 109 10 0 6 -43 10 -110
10 -98 0 -110 2 -120 19 -5 11 -10 83 -10 160 0 174 4 181 105 181 62 0 65 1
101 40 l37 40 97 0 96 0 45 -37 c38 -32 41 -33 19 -7 -53 63 -55 64 -163 64
l-100 0 -38 -41z"/>
<path d="M273 560 c0 -30 2 -43 4 -27 2 15 2 39 0 55 -2 15 -4 2 -4 -28z"/>
<path d="M335 580 c0 -15 3 -26 8 -23 4 2 7 13 7 23 0 10 -3 21 -7 23 -5 3 -8
-8 -8 -23z"/>
<path d="M513 560 c0 -30 2 -43 4 -27 2 15 2 39 0 55 -2 15 -4 2 -4 -28z"/>
<path d="M280 400 c0 -44 3 -80 8 -80 4 0 7 36 7 80 0 44 -3 80 -7 80 -5 0 -8
-36 -8 -80z"/>
<path d="M623 405 c0 -44 2 -61 4 -37 2 23 2 59 0 80 -2 20 -4 1 -4 -43z"/>
<path d="M765 401 c0 -43 3 -77 8 -74 4 2 7 38 7 79 0 41 -3 74 -7 74 -5 0 -8
-36 -8 -79z"/>
<path d="M366 453 c3 -12 1 -24 -6 -28 -8 -5 -5 -15 11 -31 21 -22 22 -27 10
-47 -13 -20 -13 -21 2 -8 22 18 21 37 -2 58 -16 13 -17 20 -8 34 9 14 9 21 0
30 -9 9 -11 7 -7 -8z"/>
<path d="M492 462 c33 -82 62 -141 66 -138 6 7 -52 146 -61 146 -5 0 -7 -4 -5
-8z"/>
<path d="M693 371 c1 -12 7 -21 15 -21 16 0 12 32 -5 37 -7 3 -11 -4 -10 -16z"/>
</g>
</svg>
